MoBL_ARMS_module2_4_allmuscles_shoulder_states	
version=1	
nRows=252	
nColumns=2	
inDegrees=yes	
	
# SIMM Motion File Header:	
name MoBL_ARMS_module2_4_allmuscles_shoulder_states	
datacolumns 2	
datarows 252	
otherdata 1	
range 0 0.04895856	
endheader	
time	shoulder_elv
0	20
0.000151946	19.99999757
0.00040052	19.99998308
0.001012792	19.99989204
0.001625064	19.99972215
0.002083372	19.99954401
0.002441121	19.99937478
0.00279887	19.99917877
0.003306152	19.99885591
0.003697882	19.9985707
0.003975099	19.99835004
0.004252317	19.99811352
0.004670726	19.99772721
0.004998968	19.99739955
0.005142479	19.99724942
0.00528599	19.99709509
0.006003544	19.99626196
0.006373453	19.9957923
0.006479022	19.99565325
0.006584592	19.99551195
0.007112438	19.99477261
0.007460365	19.99425509
0.007656214	19.99395339
0.007852062	19.99364406
0.008117988	19.99321211
0.008259211	19.9929771
0.008400435	19.99273817
0.008572973	19.99244091
0.00874551	19.9921378
0.009042984	19.99160175
0.009165887	19.99137525
0.00928879	19.99114577
0.009552615	19.99064343
0.009736318	19.99028574
0.009852386	19.9900563
0.009968454	19.98982422
0.010358597	19.98902538
0.010543997	19.98863566
0.010729397	19.98823904
0.011656398	19.98615902
0.011821409	19.98577191
0.01198642	19.98537952
0.012278434	19.98467271
0.012515766	19.98408661
0.012753098	19.98348963
0.013107291	19.9825794
0.013383527	19.98185352
0.013606618	19.98125697
0.013720565	19.98094863
0.013834512	19.98063785
0.014106406	19.97988673
0.014378301	19.97912183
0.014614524	19.97844642
0.014720917	19.97813886
0.014827311	19.9778292
0.015035146	19.97721841
0.015217614	19.97667568
0.015400082	19.97612658
0.015898003	19.97459793
0.016202889	19.97364013
0.01630559	19.97331371
0.016408292	19.97298535
0.016921798	19.97131538
0.017010053	19.97102355
0.017098309	19.97073034
0.017364402	19.96983805
0.017525564	19.96929156
0.017600403	19.96903617
0.017675241	19.96877976
0.018049434	19.96748306
0.018423627	19.96616137
0.018704425	19.96515368
0.018985224	19.964132
0.019210245	19.9633035
0.019481521	19.96229288
0.019595346	19.96186505
0.019680805	19.96154229
0.019766264	19.96121821
0.020193558	19.9595792
0.020620852	19.95790839
0.020845107	19.95701919
0.020939129	19.9566438
0.02103315	19.95626686
0.021188088	19.95564247
0.021399738	19.95478291
0.021611388	19.9539156
0.021808708	19.95310029
0.021900623	19.9527182
0.021992538	19.95233466
0.022151648	19.9516674
0.022308199	19.95100669
0.022472791	19.95030758
0.022630897	19.94963171
0.022831429	19.94876839
0.022933733	19.94832536
0.02306698	19.94774562
0.023156915	19.94735256
0.02324685	19.94695812
0.023413602	19.94622328
0.023614268	19.94533285
0.02377458	19.94461652
0.023934892	19.94389601
0.024109164	19.94310803
0.024251686	19.94245988
0.024394208	19.94180828
0.024584162	19.94093474
0.024676567	19.94050764
0.024768972	19.94007911
0.024900665	19.93946601
0.025032358	19.93884991
0.025302676	19.93757659
0.025518351	19.93655231
0.02568622	19.93574979
0.025771151	19.935342
0.025856082	19.93493302
0.025947064	19.93449357
0.026038045	19.93405276
0.026173934	19.93339192
0.026309822	19.932728
0.026548997	19.93155236
0.026644862	19.93107858
0.026772555	19.93044504
0.026900248	19.92980881
0.027091682	19.92885022
0.027180292	19.92840452
0.027268902	19.92795753
0.027400498	19.92729144
0.027532094	19.92662245
0.02776865	19.92541313
0.027919808	19.92463584
0.02811572	19.92362297
0.028195574	19.92320839
0.028323743	19.92254078
0.028555407	19.92132717
0.028687791	19.92062966
0.028876836	19.9196286
0.029174542	19.91804021
0.029306707	19.91733043
0.029438871	19.91661776
0.029706969	19.91516394
0.029919908	19.91400147
0.030010456	19.91350496
0.030101004	19.91300716
0.030227113	19.91231176
0.030306305	19.91187379
0.030554437	19.91049489
0.030685273	19.90976378
0.031002456	19.90797988
0.031319639	19.90617992
0.031530008	19.90497785
0.031827573	19.90326553
0.031976309	19.90240446
0.032125046	19.90153994
0.032300792	19.90051422
0.03238047	19.90004767
0.032509891	19.8992877
0.03273351	19.89796829
0.032927684	19.89681614
0.03302973	19.89620824
0.033261851	19.89481931
0.033788283	19.89163734
0.033849998	19.89126143
0.033911712	19.89088497
0.034123917	19.88958633
0.03421161	19.88904773
0.034321806	19.88836927
0.034581761	19.8867613
0.034685441	19.88611699
0.034789121	19.88547106
0.034861179	19.88502121
0.035005191	19.88411975
0.035348289	19.88195909
0.035436967	19.88139762
0.035545602	19.88070821
0.035678373	19.87986324
0.035826833	19.87891548
0.035975293	19.87796431
0.036235883	19.87628722
0.036444039	19.87494074
0.036522704	19.87443026
0.03664035	19.87366508
0.036986862	19.87139903
0.03720334	19.86997415
0.037314679	19.86923873
0.037391139	19.86873265
0.037595041	19.86737869
0.037680827	19.86680719
0.037766613	19.86623457
0.038195544	19.8633558
0.038266303	19.86287837
0.038493148	19.86134271
0.038764339	19.85949678
0.038917538	19.85844956
0.039070738	19.85739892
0.039258808	19.85610478
0.039368449	19.85534806
0.039442223	19.85483791
0.039556613	19.85404528
0.039802723	19.8523333
0.040440314	19.84785557
0.040474795	19.84761168
0.040509277	19.84736764
0.040681685	19.84614503
0.040840972	19.8450119
0.040927149	19.84439737
0.041146217	19.84283029
0.041266524	19.84196668
0.041496724	19.84030826
0.042078244	19.83608341
0.042226046	19.83500189
0.042327514	19.83425766
0.042484505	19.83310333
0.042697864	19.83152889
0.042764203	19.83103813
0.042958219	19.82959921
0.043068325	19.82878012
0.04317843	19.82795935
0.043321896	19.82688755
0.043532031	19.82531258
0.043600855	19.82479545
0.043776072	19.82347583
0.043841358	19.82298302
0.044081701	19.82116347
0.044811084	19.81559019
0.044838595	19.81537849
0.044866107	19.81516669
0.045003663	19.81410626
0.045154785	19.8129385
0.045305907	19.81176767
0.045461344	19.81056041
0.045616781	19.80934986
0.045809603	19.80784395
0.045950498	19.80674053
0.046027788	19.8061341
0.04616409	19.80506262
0.046368269	19.80345262
0.046509905	19.80233251
0.046605785	19.80157273
0.046676404	19.80101235
0.046907844	19.79917093
0.047119496	19.79748048
0.047284953	19.79615515
0.047364858	19.79551382
0.047491454	19.79449596
0.047735495	19.79252751
0.047861529	19.79150767
0.048217176	19.78861809
0.048475655	19.7865073
0.048573076	19.78570962
0.048646372	19.78510865
0.048847779	19.78345354
0.04895856	19.78254081
